<svg xmlns="http://www.w3.org/2000/svg" xmlns:xlink="http://www.w3.org/1999/xlink" version="1.1" baseProfile="full" width="32" height="32" viewBox="0 0 32.00 32.00" enable-background="new 0 0 32.00 32.00" xml:space="preserve">
	<path fill="#0096FF" fill-opacity="1" stroke-width="0.2" stroke-linejoin="round" d="M 19.6232,21.7722C 19.4249,21.9715 19.1,21.9715 18.9017,21.7722L 16.0157,18.8865L 13.1299,21.7722C 12.9316,21.9715 12.6068,21.9715 12.4085,21.7722L 10.2442,19.608C 10.0449,19.4107 10.0449,19.0858 10.2442,18.8865L 13.1299,16.0005L 10.2442,13.1147C 10.0449,12.9154 10.0449,12.5905 10.2442,12.3934L 12.4085,10.2287C 12.6068,10.0297 12.9306,10.0297 13.1299,10.2287L 16.0157,13.1147L 18.9017,10.2287C 19.1011,10.0297 19.4249,10.0297 19.6232,10.2287L 21.7875,12.3934C 21.9868,12.5905 21.9868,12.9154 21.7875,13.1147L 18.9017,16.0005L 21.7875,18.8865C 21.9868,19.0858 21.9868,19.4107 21.7875,19.608M 24.8548,7.16162C 19.9728,2.27963 12.0589,2.27963 7.17688,7.16162C 2.29524,12.0433 2.29524,19.9576 7.17688,24.8396C 12.0589,29.7212 19.9728,29.7212 24.8548,24.8396C 29.7354,19.9576 29.7364,12.0433 24.8548,7.16162 Z "/>
</svg>
