<svg xmlns="http://www.w3.org/2000/svg" xmlns:xlink="http://www.w3.org/1999/xlink" version="1.1" baseProfile="full" width="32" height="32" viewBox="0 0 32.00 32.00" enable-background="new 0 0 32.00 32.00" xml:space="preserve">
	<path fill="#0096FF" fill-opacity="1" stroke-width="0.2" stroke-linejoin="round" d="M 10.8277,22.1536L 15.6781,27.8868C 15.7187,27.9402 15.7704,27.9709 15.8238,27.9709C 15.891,27.9709 15.9603,27.9473 16.0117,27.8807L 20.8614,22.1505C 20.9534,22.0319 20.9054,21.8872 20.755,21.8872L 17.8659,21.8872L 17.8557,16.1916C 17.8551,15.9123 17.7381,15.8025 17.4596,15.8035L 14.2227,15.8035C 13.9439,15.8046 13.8101,15.9144 13.8107,16.1936L 13.8107,21.8872L 10.9342,21.8991C 10.7838,21.8991 10.7358,22.0346 10.8277,22.1536 Z M 28.8297,15.8985C 28.8297,19.1645 26.1914,21.8872 22.9363,21.8872L 22.2093,21.8872C 22.1927,21.7148 22.1569,21.5445 22.0778,21.3833C 21.8314,20.8811 21.3245,20.5694 20.755,20.5694L 19.182,20.5694C 19.182,20.5694 19.1735,17.3363 19.1735,16.1895C 19.1735,15.043 18.4685,14.4857 17.4559,14.4857L 14.2177,14.4725C 13.1997,14.4756 12.5413,15.2006 12.5433,16.2016L 12.5433,20.5742L 10.9342,20.5812C 10.363,20.5812 9.856,20.8923 9.61029,21.3931C 9.53322,21.5506 9.49738,21.7179 9.4815,21.8872L 7.72703,21.8872C 5.57476,21.8872 3.82974,20.0625 3.82974,17.9105C 3.82974,16.0452 5.14246,14.4104 6.89356,14.0281C 6.86856,13.7787 6.85538,13.5252 6.85538,13.2686C 6.85538,9.14731 10.196,5.80666 14.3177,5.80666C 17.3447,5.80666 19.9438,7.61186 21.1149,10.2011C 21.6885,10.0139 22.3002,9.90975 22.9363,9.90975C 26.1914,9.90975 28.8297,12.6349 28.8297,15.8985 Z "/>
</svg>
