<svg xmlns="http://www.w3.org/2000/svg" xmlns:xlink="http://www.w3.org/1999/xlink" version="1.1" baseProfile="full" width="32" height="32" viewBox="0 0 32.00 32.00" enable-background="new 0 0 32.00 32.00" xml:space="preserve">
	<path fill="#0096FF" fill-opacity="1" stroke-width="0.2" stroke-linejoin="round" d="M 7.22103,13.7896C 7.22103,10.1684 10.1679,7.22066 13.7901,7.22066C 17.4129,7.22066 20.3588,10.1684 20.3588,13.7896C 20.3588,17.4127 17.4129,20.3591 13.7901,20.3591C 10.1679,20.3591 7.22103,17.4127 7.22103,13.7896 Z M 27.8367,24.9539L 21.8767,18.993C 22.8464,17.4909 23.4186,15.7076 23.4186,13.7896C 23.4186,8.48117 19.0975,4.16296 13.7901,4.16296C 8.48072,4.16296 4.16329,8.48117 4.16329,13.7896C 4.16329,19.0989 8.48072,23.4172 13.7901,23.4172C 15.7071,23.4172 17.4903,22.8478 18.9934,21.8774L 24.9534,27.837C 25.1514,28.0364 25.4783,28.0364 25.6753,27.837L 27.8367,25.6758C 28.0368,25.4777 28.0368,25.153 27.8367,24.9539 Z "/>
</svg>
