<svg xmlns="http://www.w3.org/2000/svg" xmlns:xlink="http://www.w3.org/1999/xlink" version="1.1" baseProfile="full" width="32" height="32" viewBox="0 0 32.00 32.00" enable-background="new 0 0 32.00 32.00" xml:space="preserve">
	<path fill="#0096FF" fill-opacity="1" stroke-width="0.2" stroke-linejoin="round" d="M 23.2204,12.9263L 14.535,21.6108C 14.4054,21.7413 14.1912,21.7413 14.0609,21.6108L 8.79116,16.3403C 8.66089,16.2106 8.66089,15.9974 8.79116,15.8662L 10.9687,13.6896C 11.099,13.5589 11.3122,13.5589 11.4418,13.6896L 14.0619,16.3093C 14.1922,16.439 14.4054,16.439 14.536,16.3093L 20.5517,10.2948C 20.6813,10.1641 20.8956,10.1631 21.0282,10.2926L 23.2184,12.4538C 23.35,12.5835 23.35,12.7958 23.2204,12.9263 Z M 24.8548,7.16162C 19.9728,2.27979 12.0588,2.27979 7.17686,7.16162C 2.29522,12.0433 2.29522,19.9576 7.17686,24.8393C 12.0588,29.7212 19.9728,29.7212 24.8548,24.8393C 29.7354,19.9576 29.7364,12.0433 24.8548,7.16162 Z "/>
</svg>
