<svg xmlns="http://www.w3.org/2000/svg" xmlns:xlink="http://www.w3.org/1999/xlink" version="1.1" baseProfile="full" viewBox="0 0 32.00 32.00" enable-background="new 0 0 32.00 32.00" xml:space="preserve">
	<path fill="#0096FF" fill-opacity="1" stroke-width="0.2" stroke-linejoin="round" d="M 18.0409,12.4288C 18.0409,12.7098 17.996,13.1642 17.9413,13.4394L 17.0225,18.306C 16.9688,18.5812 16.6936,19.0615 16.4127,19.0615L 15.6113,19.0615C 15.3304,19.0615 15.0555,18.5812 14.9994,18.306L 14.061,13.567C 14.0052,13.2918 13.9593,12.7098 13.9593,12.4288L 13.9593,8.3472C 13.9593,8.06619 14.1885,7.837 14.4695,7.837L 17.5307,7.837C 17.8117,7.837 18.0409,8.06619 18.0409,8.3472M 18.0409,23.6533C 18.0409,23.9343 17.8117,24.1635 17.5307,24.1635L 14.4695,24.1635C 14.1885,24.1635 13.9593,23.9343 13.9593,23.6533L 13.9593,20.5921C 13.9593,20.3111 14.1885,20.0819 14.4695,20.0819L 17.5307,20.0819C 17.8117,20.0819 18.0409,20.3111 18.0409,20.5921M 16.0001,3.50026C 9.09702,3.50026 3.50009,9.09656 3.50009,16.0003C 3.50009,22.904 9.09702,28.5003 16.0001,28.5003C 22.9032,28.5003 28.5001,22.904 28.5001,16.0003C 28.5001,9.09656 22.9032,3.50026 16.0001,3.50026 Z "/>
</svg>
