<svg xmlns="http://www.w3.org/2000/svg" xmlns:xlink="http://www.w3.org/1999/xlink" version="1.1" baseProfile="full" width="32" height="32" viewBox="0 0 32.00 32.00" enable-background="new 0 0 32.00 32.00" xml:space="preserve">
	<path fill="#0096FF" fill-opacity="1" stroke-width="0.2" stroke-linejoin="round" d="M 23.1151,23.1162C 21.9116,24.3197 20.4054,25.202 18.7592,25.6683C 18.7033,25.6839 18.646,25.6919 18.589,25.6919C 18.48,25.6919 18.3717,25.6631 18.2755,25.6079C 18.1293,25.5228 18.0234,25.3825 17.9824,25.2183L 17.7984,24.4818C 17.7168,24.1551 17.9088,23.8221 18.2328,23.7294C 19.5401,23.3551 20.7363,22.6506 21.6936,21.6919C 22.6505,20.7364 23.355,19.5398 23.7304,18.2315C 23.8088,17.9579 24.0585,17.7787 24.3311,17.7787C 24.3811,17.7787 24.4321,17.785 24.4828,17.7975L 25.2193,17.9815C 25.3835,18.0224 25.5238,18.1284 25.6089,18.2749C 25.6932,18.4211 25.7151,18.5954 25.6689,18.7582C 25.2019,20.4054 24.3189,21.9124 23.1151,23.1162 Z M 17.2245,22.1864L 17.0456,21.4672C 16.9654,21.1447 17.1512,20.8159 17.4689,20.7186C 18.247,20.4801 18.9515,20.0603 19.5064,19.5048C 20.0609,18.9509 20.4804,18.2467 20.7196,17.4676C 20.8019,17.1999 21.0484,17.0259 21.3168,17.0259C 21.3672,17.0259 21.4182,17.0322 21.4689,17.0447L 22.188,17.2249C 22.354,17.2662 22.4957,17.3738 22.58,17.5225C 22.6644,17.6711 22.6842,17.8478 22.6345,18.0117C 22.3057,19.102 21.7075,20.1026 20.905,20.9054C 20.1033,21.7082 19.1026,22.3058 18.0109,22.6339C 17.9519,22.6516 17.8915,22.6607 17.8311,22.6607C 17.7238,22.6607 17.6168,22.6328 17.522,22.5787C 17.3734,22.494 17.2658,22.3523 17.2245,22.1864 Z M 13.6224,18.378C 12.3088,17.0644 12.3088,14.9353 13.6224,13.6221C 14.9356,12.3089 17.0644,12.3089 18.3776,13.6221C 19.6908,14.9353 19.6911,17.0644 18.3776,18.378C 17.0644,19.6912 14.9352,19.6909 13.6224,18.378 Z M 11.2804,14.5325C 11.1981,14.8002 10.9516,14.9742 10.6832,14.9742C 10.6328,14.9742 10.5818,14.9679 10.5311,14.9554L 9.81198,14.7752C 9.646,14.7339 9.50432,14.6263 9.41996,14.4773C 9.33559,14.3291 9.31579,14.1523 9.36545,13.9884C 9.69425,12.8982 10.2925,11.8974 11.0949,11.0947C 11.8967,10.2919 12.8974,9.69433 13.9891,9.36584C 14.0481,9.3485 14.1085,9.33948 14.1689,9.33948C 14.2762,9.33948 14.3832,9.36724 14.4779,9.42141C 14.6266,9.50614 14.7342,9.64779 14.7755,9.81343L 14.9543,10.5329C 15.0345,10.8551 14.8488,11.1839 14.5311,11.2815C 13.7529,11.52 13.0484,11.9398 12.4936,12.4954C 11.9391,13.0488 11.5196,13.7533 11.2804,14.5325 Z M 7.6689,14.2214C 7.61891,14.2214 7.56788,14.2152 7.51719,14.2027L 6.78072,14.0183C 6.61649,13.9773 6.47586,13.8718 6.39113,13.7252C 6.30642,13.579 6.28489,13.4044 6.33107,13.2419C 6.79807,11.5947 7.68107,10.0878 8.88488,8.88392C 10.0884,7.68042 11.5946,6.79778 13.2408,6.33184C 13.2967,6.31586 13.354,6.30823 13.4109,6.30823C 13.52,6.30823 13.6283,6.33705 13.7245,6.39224C 13.8706,6.47731 13.9765,6.61761 14.0175,6.78185L 14.2016,7.5183C 14.2831,7.845 14.0911,8.17803 13.7672,8.27072C 12.4599,8.64503 11.2634,9.34952 10.3064,10.3082C 9.34947,11.2638 8.64496,12.4603 8.26961,13.7686C 8.19114,14.0419 7.94149,14.2214 7.6689,14.2214 Z M 24.6894,7.31065C 19.8905,2.51167 12.1095,2.51167 7.31058,7.31065C 2.51196,12.11 2.51196,19.8902 7.31058,24.6891C 12.1095,29.4884 19.8905,29.4884 24.6894,24.6891C 29.488,19.8902 29.488,12.11 24.6894,7.31065 Z "/>
</svg>
