<svg xmlns="http://www.w3.org/2000/svg" xmlns:xlink="http://www.w3.org/1999/xlink" version="1.1" baseProfile="full" width="32" height="32" viewBox="0 0 32.00 32.00" enable-background="new 0 0 32.00 32.00" xml:space="preserve">
	<g>
		<path fill="#0074C5"  class="darker" fill-opacity="1" stroke-width="0.2" stroke-linejoin="round" d="M 28.8333,9.00003L 28.8333,6.6667C 28.8333,6.02194 28.3111,5.50003 27.6667,5.50003L 15.6103,5.50003L 15.2024,4.2727C 14.9998,3.66487 14.3079,3.1667 13.6667,3.1667L 7.83333,3.1667C 7.19205,3.1667 6.50022,3.66487 6.29761,4.2727L 5.88966,5.50003L 4.33333,5.50003C 3.69205,5.50003 3.16666,6.02545 3.16666,6.6667L 3.16666,9.00003"/>
		<path fill="#0096FF" fill-opacity="1" stroke-width="0.2" stroke-linejoin="round" d="M 30,11.3334L 30,27.6667C 30,28.3079 29.4746,28.8334 28.8333,28.8334L 3.16666,28.8334C 2.52539,28.8334 2,28.3079 2,27.6667L 2,11.3334C 2,10.6921 2.52539,10.1667 3.16666,10.1667L 28.8333,10.1667C 29.4746,10.1667 30,10.6921 30,11.3334 Z "/>
	</g>
</svg>
