
<svg xmlns="http://www.w3.org/2000/svg" xmlns:xlink="http://www.w3.org/1999/xlink" version="1.1" baseProfile="full" width="32" height="32" viewBox="0 0 32.00 32.00" enable-background="new 0 0 32.00 32.00" xml:space="preserve">
	<g>
		<path fill="#0096FF" fill-opacity="1" stroke-width="0.2" stroke-linejoin="round" d="M 3,1.90735e-006L 29,1.90735e-006C 30.6568,1.90735e-006 32,1.34315 32,3L 32,29C 32,30.6569 30.6568,32 29,32L 3,32C 1.34315,32 -1.20486e-006,30.6569 -1.20486e-006,29L -1.20486e-006,3C -1.20486e-006,1.34315 1.34315,1.90735e-006 3,1.90735e-006 Z "/>
		<path fill="#FFFFFF"  class="white" fill-opacity="1" stroke-width="0.2" stroke-linejoin="round" d="M 7.81327,12.5008C 7.81327,11.2957 8.79293,10.3141 9.99992,10.3141C 11.207,10.3141 12.1863,11.2957 12.1863,12.5008C 12.1863,13.7059 11.207,14.6875 9.99992,14.6875C 8.79293,14.6875 7.81327,13.7059 7.81327,12.5008 Z M 25.9999,18.0788L 22.4733,14.5008C 22.4733,14.5008 21.4999,13.5008 20.5309,13.5008C 19.5623,13.5008 18.6209,14.5008 18.6209,14.5008C 18.6209,14.5008 15.9843,17.5116 14.9899,18.5049C 16.5936,19.1882 19.0203,23.1395 17.1659,21.9608C 15.3123,20.7822 12.0623,19.5018 12.0623,19.5018L 5.99992,23.5008L 5.99992,8.50081L 25.9999,8.50081M 27.1249,6.50081L 4.87492,6.50081C 4.39128,6.50081 3.99992,6.89242 3.99992,7.37581L 3.99992,25.6258C 3.99992,26.1092 4.39128,26.5008 4.87492,26.5008L 27.1249,26.5008C 27.6083,26.5008 27.9999,26.1092 27.9999,25.6258L 27.9999,7.37581C 27.9999,6.89242 27.6083,6.50081 27.1249,6.50081 Z "/>
	</g>
</svg>
