<svg xmlns="http://www.w3.org/2000/svg" xmlns:xlink="http://www.w3.org/1999/xlink" version="1.1" baseProfile="full" width="32" height="32" viewBox="0 0 32.00 32.00" enable-background="new 0 0 32.00 32.00" xml:space="preserve">
	<g>
		<path fill="#0096FF" fill-opacity="1" stroke-width="0.2" stroke-linejoin="round" d="M 5.23074,4.15376L 8.46152,4.15376L 8.46152,6.30762L 5.23074,6.30762M 5.23074,8.46146L 8.46152,8.46146L 8.46152,10.6153L 5.23074,10.6153M 5.23074,12.7692L 8.46152,12.7692L 8.46152,14.923L 5.23074,14.923M 5.23074,17.0769L 8.46152,17.0769L 8.46152,19.2307L 5.23074,19.2307M 8.46152,27.8461L 5.23074,27.8461L 5.23074,25.6923L 8.46152,25.6923M 5.23074,21.3846L 8.46152,21.3846L 8.46152,23.5384L 5.23074,23.5384M 22.4615,27.8461L 9.53844,27.8461L 9.53844,17.0769L 22.4615,17.0769M 9.53844,4.15376L 22.4615,4.15376L 22.4615,14.923L 9.53844,14.923M 23.5385,4.15376L 26.7692,4.15376L 26.7692,6.30762L 23.5385,6.30762M 23.5385,8.46146L 26.7692,8.46146L 26.7692,10.6153L 23.5385,10.6153M 23.5385,12.7692L 26.7692,12.7692L 26.7692,14.923L 23.5385,14.923M 23.5385,17.0769L 26.7692,17.0769L 26.7692,19.2307L 23.5385,19.2307M 26.7692,27.8461L 23.5385,27.8461L 23.5385,25.6923L 26.7692,25.6923M 23.5385,21.3846L 26.7692,21.3846L 26.7692,23.5384L 23.5385,23.5384M 26.7692,1.99991L 5.23074,1.99991C 4.63877,1.99991 4.15381,2.48474 4.15381,3.07684L 4.15381,28.923C 4.15381,29.5151 4.63877,30 5.23074,30L 26.7692,30C 27.3612,30 27.8462,29.5151 27.8462,28.923L 27.8462,3.07684C 27.8462,2.48474 27.3612,1.99991 26.7692,1.99991 Z "/>
		<path fill="#0096FF" fill-opacity="0.301961" stroke-width="0.2" stroke-linejoin="round" d="M 22.4615,17.0769L 9.53844,17.0769L 9.53844,27.8461L 22.4615,27.8461M 22.4615,4.15376L 9.53844,4.15376L 9.53844,14.923L 22.4615,14.923L 22.4615,4.15376 Z "/>
	</g>
</svg>
